<mxfile host="app.diagrams.net" agent="Mozilla/5.0 (Windows NT 10.0; Win64; x64) AppleWebKit/537.36 (KHTML, like Gecko) Chrome/137.0.0.0 Safari/537.36" version="27.2.0">
  <diagram name="Use Case PolyShop" id="0">
    <mxGraphModel dx="1042" dy="657" grid="1" gridSize="10" guides="1" tooltips="1" connect="1" arrows="1" fold="1" page="1" pageScale="1" pageWidth="850" pageHeight="1100" math="0" shadow="0">
      <root>
        <mxCell id="0" />
        <mxCell id="1" parent="0" />
        <mxCell id="2" value="Người dùng" style="shape=umlActor;verticalLabelPosition=bottom;verticalAlign=top;" parent="1" vertex="1">
          <mxGeometry x="30" y="110" width="30" height="60" as="geometry" />
        </mxCell>
        <mxCell id="3" value="Quản trị viên" style="shape=umlActor;verticalLabelPosition=bottom;verticalAlign=top;" parent="1" vertex="1">
          <mxGeometry x="30" y="470" width="30" height="60" as="geometry" />
        </mxCell>
        <mxCell id="10" value="Đăng ký/Đăng nhập" style="ellipse;whiteSpace=wrap;html=1;fillColor=#CCFFCC;" parent="1" vertex="1">
          <mxGeometry x="200" y="20" width="140" height="40" as="geometry" />
        </mxCell>
        <mxCell id="11" value="Tìm kiếm sản phẩm" style="ellipse;whiteSpace=wrap;html=1;strokeColor=#1A1A1A;fillColor=#CCFFCC;" parent="1" vertex="1">
          <mxGeometry x="200" y="80" width="140" height="40" as="geometry" />
        </mxCell>
        <mxCell id="12" value="Lọc theo danh mục" style="ellipse;whiteSpace=wrap;html=1;fillColor=#99CCFF;" parent="1" vertex="1">
          <mxGeometry x="470" y="80" width="140" height="40" as="geometry" />
        </mxCell>
        <mxCell id="13" value="Xem chi tiết sản phẩm" style="ellipse;whiteSpace=wrap;html=1;fillColor=#CCFFCC;" parent="1" vertex="1">
          <mxGeometry x="200" y="160" width="140" height="40" as="geometry" />
        </mxCell>
        <mxCell id="14" value="Xem hình ảnh SP" style="ellipse;whiteSpace=wrap;html=1;fillColor=#99CCFF;" parent="1" vertex="1">
          <mxGeometry x="470" y="160" width="140" height="40" as="geometry" />
        </mxCell>
        <mxCell id="15" value="Bình luận sản phẩm" style="ellipse;whiteSpace=wrap;html=1;fillColor=#CCFFCC;" parent="1" vertex="1">
          <mxGeometry x="200" y="230" width="140" height="40" as="geometry" />
        </mxCell>
        <mxCell id="16" value="Đánh giá sản phẩm" style="ellipse;whiteSpace=wrap;html=1;fillColor=#99CCFF;" parent="1" vertex="1">
          <mxGeometry x="470" y="230" width="140" height="40" as="geometry" />
        </mxCell>
        <mxCell id="20" value="Quản lý sản phẩm" style="ellipse;whiteSpace=wrap;html=1;fillColor=#CCFFCC;" parent="1" vertex="1">
          <mxGeometry x="220" y="360" width="140" height="40" as="geometry" />
        </mxCell>
        <mxCell id="21" value="Thêm/Sửa/Xóa SP" style="ellipse;whiteSpace=wrap;html=1;fillColor=#99CCFF;" parent="1" vertex="1">
          <mxGeometry x="460" y="360" width="140" height="40" as="geometry" />
        </mxCell>
        <mxCell id="22" value="Quản lý danh mục" style="ellipse;whiteSpace=wrap;html=1;fillColor=#CCFFCC;" parent="1" vertex="1">
          <mxGeometry x="210" y="430" width="140" height="40" as="geometry" />
        </mxCell>
        <mxCell id="23" value="Quản lý kho hàng" style="ellipse;whiteSpace=wrap;html=1;fillColor=#99CCFF;" parent="1" vertex="1">
          <mxGeometry x="460" y="430" width="140" height="40" as="geometry" />
        </mxCell>
        <mxCell id="24" value="Quản lý khuyến mãi" style="ellipse;whiteSpace=wrap;html=1;fillColor=#CCFFCC;" parent="1" vertex="1">
          <mxGeometry x="210" y="490" width="140" height="40" as="geometry" />
        </mxCell>
        <mxCell id="25" value="Kiểm duyệt bình luận" style="ellipse;whiteSpace=wrap;html=1;fillColor=#CCFFCC;" parent="1" vertex="1">
          <mxGeometry x="210" y="570" width="140" height="40" as="geometry" />
        </mxCell>
        <mxCell id="30" style="endArrow=none;" parent="1" source="2" target="10" edge="1">
          <mxGeometry relative="1" as="geometry" />
        </mxCell>
        <mxCell id="31" style="endArrow=none;" parent="1" source="2" target="11" edge="1">
          <mxGeometry relative="1" as="geometry" />
        </mxCell>
        <mxCell id="32" value="&lt;" style="endArrow=none;dashed=1;" parent="1" source="11" target="12" edge="1">
          <mxGeometry x="0.0769" y="10" relative="1" as="geometry">
            <Array as="points">
              <mxPoint x="410" y="100" />
            </Array>
            <mxPoint as="offset" />
          </mxGeometry>
        </mxCell>
        <mxCell id="33" style="endArrow=none;" parent="1" source="2" target="13" edge="1">
          <mxGeometry relative="1" as="geometry" />
        </mxCell>
        <mxCell id="34" value="&lt;" style="endArrow=none;dashed=1;" parent="1" source="13" target="14" edge="1">
          <mxGeometry x="0.0769" y="10" relative="1" as="geometry">
            <mxPoint as="offset" />
          </mxGeometry>
        </mxCell>
        <mxCell id="35" style="endArrow=none;" parent="1" source="2" target="15" edge="1">
          <mxGeometry relative="1" as="geometry" />
        </mxCell>
        <mxCell id="36" value="&lt;" style="endArrow=none;dashed=1;" parent="1" source="15" target="16" edge="1">
          <mxGeometry x="0.0769" y="10" relative="1" as="geometry">
            <mxPoint as="offset" />
          </mxGeometry>
        </mxCell>
        <mxCell id="37" style="endArrow=none;" parent="1" source="3" target="20" edge="1">
          <mxGeometry relative="1" as="geometry" />
        </mxCell>
        <mxCell id="38" value="&lt;" style="endArrow=none;dashed=1;" parent="1" source="20" target="21" edge="1">
          <mxGeometry y="10" relative="1" as="geometry">
            <mxPoint as="offset" />
          </mxGeometry>
        </mxCell>
        <mxCell id="39" style="endArrow=none;" parent="1" source="3" target="22" edge="1">
          <mxGeometry relative="1" as="geometry" />
        </mxCell>
        <mxCell id="40" value="&lt;" style="endArrow=none;dashed=1;" parent="1" source="22" target="23" edge="1">
          <mxGeometry x="0.0909" y="10" relative="1" as="geometry">
            <mxPoint as="offset" />
          </mxGeometry>
        </mxCell>
        <mxCell id="41" style="endArrow=none;" parent="1" source="3" target="24" edge="1">
          <mxGeometry relative="1" as="geometry" />
        </mxCell>
        <mxCell id="42" style="endArrow=none;" parent="1" source="3" target="25" edge="1">
          <mxGeometry relative="1" as="geometry" />
        </mxCell>
      </root>
    </mxGraphModel>
  </diagram>
</mxfile>
